<svg version="1.1" id="Layer_1" xmlns="http://www.w3.org/2000/svg" xmlns:xlink="http://www.w3.org/1999/xlink" x="0px" y="0px"
	 width="100%" viewBox="0 0 1356 1536" enable-background="new 0 0 1356 1536" xml:space="preserve">
<path fill="#FF4A6A" opacity="1.000000" stroke="none" 
	d="
M681.000000,1537.000000 
	C679.286133,1537.000000 677.572266,1537.000000 675.769287,1536.763916 
	C674.885010,1535.706055 674.225525,1534.652588 673.274963,1534.096680 
	C653.207947,1522.365112 633.144653,1510.626465 613.002869,1499.024048 
	C598.069458,1490.421753 582.958557,1482.126587 568.046997,1473.487183 
	C547.095032,1461.348022 526.320007,1448.903076 505.347260,1436.800293 
	C485.492157,1425.342529 465.406830,1414.283813 445.554443,1402.821411 
	C418.801239,1387.375000 392.181671,1371.697266 365.489838,1356.144165 
	C351.307983,1347.880371 337.121826,1339.623291 322.888519,1331.448608 
	C306.821869,1322.221069 290.668182,1313.145020 274.611755,1303.899780 
	C260.802734,1295.948853 247.094727,1287.822510 233.310364,1279.828491 
	C217.277176,1270.530151 201.221634,1261.270386 185.153351,1252.032715 
	C169.088379,1242.797241 152.979416,1233.638062 136.918991,1224.394531 
	C118.183868,1213.611694 99.465935,1202.798584 80.767731,1191.951782 
	C65.298607,1182.978027 49.899654,1173.883057 34.411568,1164.942261 
	C23.324102,1158.541992 12.140640,1152.308105 1.000009,1146.000000 
	C1.000000,894.639771 1.000000,643.279602 1.378698,391.458984 
	C2.090261,390.989899 2.491869,391.101074 2.746141,390.955292 
	C18.254997,382.064087 33.764946,373.174591 49.245792,364.234772 
	C63.183937,356.185822 77.089699,348.080780 91.008438,339.998199 
	C104.927261,331.915588 118.834267,323.812500 132.765045,315.750519 
	C148.526672,306.628998 164.312119,297.548676 180.081451,288.440399 
	C194.300293,280.227692 208.505829,271.991913 222.727310,263.783752 
	C238.781891,254.517548 254.854568,245.282715 270.906494,236.011948 
	C284.843201,227.962860 298.761261,219.881485 312.688812,211.816574 
	C330.418427,201.550064 348.137512,191.265259 365.883606,181.027298 
	C378.839264,173.553009 391.836578,166.151016 404.805603,158.699844 
	C420.309570,149.792206 435.798431,140.858261 451.302643,131.951080 
	C465.546600,123.767868 479.834290,115.660210 494.045135,107.420059 
	C514.158875,95.757141 534.175476,83.926300 554.316895,72.311653 
	C571.076904,62.646885 588.012756,53.286915 604.770203,43.617779 
	C627.302002,30.616796 649.748718,17.467875 672.181824,4.297030 
	C673.360291,3.605131 674.071350,2.117295 675.000000,1.000008 
	C677.041687,1.000000 679.083374,1.000000 681.570312,1.367481 
	C686.623779,4.618797 691.167175,7.613170 695.852478,10.365897 
	C710.289429,18.847958 724.757568,27.277657 739.257019,35.652374 
	C754.737793,44.593845 770.267944,53.449890 785.776855,62.342537 
	C799.880737,70.429558 813.997314,78.494484 828.086121,86.607735 
	C844.562500,96.095917 861.029297,105.601059 877.473206,115.145424 
	C891.252869,123.143440 904.971680,131.246353 918.757385,139.233841 
	C934.792175,148.524460 950.880981,157.721878 966.927063,166.993088 
	C983.251587,176.425171 999.539001,185.921646 1015.868042,195.345825 
	C1031.350098,204.281174 1046.865234,213.159103 1062.365723,222.062469 
	C1076.607422,230.242737 1090.858276,238.407104 1105.088257,246.607758 
	C1121.561523,256.101196 1138.009888,265.637878 1154.481079,275.134949 
	C1168.708130,283.338104 1182.979004,291.465271 1197.181519,299.710541 
	C1215.037109,310.076508 1232.804688,320.594482 1250.681274,330.924011 
	C1266.723267,340.193512 1282.905884,349.219727 1298.945068,358.494110 
	C1316.670776,368.743744 1334.289307,379.178741 1352.004272,389.447235 
	C1353.475342,390.299896 1355.325806,390.497833 1357.000000,391.000000 
	C1357.000000,642.360168 1357.000000,893.720398 1356.631958,1145.546265 
	C1349.931641,1149.659424 1343.614380,1153.333740 1337.263916,1156.948975 
	C1322.849243,1165.155151 1308.367188,1173.243774 1294.007812,1181.545044 
	C1278.521362,1190.497803 1263.199097,1199.735229 1247.703125,1208.671265 
	C1230.939209,1218.338379 1214.000122,1227.701538 1197.240234,1237.375488 
	C1173.302002,1251.192871 1149.497803,1265.242310 1125.561157,1279.062134 
	C1102.321411,1292.479492 1078.941040,1305.653442 1055.706055,1319.078979 
	C1032.888672,1332.262817 1010.214355,1345.693970 987.405029,1358.891602 
	C971.505310,1368.091309 955.436707,1376.998779 939.528259,1386.183472 
	C919.531006,1397.729004 899.655151,1409.484741 879.661987,1421.037231 
	C860.931763,1431.860107 842.073792,1442.461914 823.350708,1453.296997 
	C801.678406,1465.839233 780.139587,1478.612427 758.455383,1491.133789 
	C735.216797,1504.552856 711.854126,1517.757080 688.610107,1531.166748 
	C685.865234,1532.750244 683.526794,1535.038452 681.000000,1537.000000 
M416.960266,288.522797 
	C415.057312,289.460602 413.091583,290.290344 411.261230,291.353210 
	C395.230072,300.662170 379.259125,310.075256 363.199493,319.334595 
	C344.600586,330.057922 325.890533,340.588562 307.300171,351.326569 
	C282.515289,365.642578 257.820984,380.115448 233.046295,394.449249 
	C215.169678,404.792114 197.204117,414.981171 179.317337,425.306580 
	C161.010086,435.874695 142.840302,446.685638 124.401184,457.016998 
	C120.249352,459.343231 118.869453,461.730591 118.872993,466.510284 
	C119.021088,666.504272 119.047295,866.498413 118.826866,1066.492188 
	C118.818062,1074.482056 120.326591,1079.053955 128.145554,1083.125122 
	C148.314941,1093.626953 167.668976,1105.690430 187.392075,1117.054810 
	C212.334503,1131.426636 237.360962,1145.652954 262.275543,1160.072632 
	C288.597260,1175.306885 314.781219,1190.779175 341.115234,1205.991821 
	C368.433289,1221.773193 395.898346,1237.299805 423.226959,1253.062988 
	C452.530945,1269.965454 481.714172,1287.077393 511.018066,1303.980103 
	C538.346497,1319.743408 565.814148,1335.265381 593.128967,1351.052002 
	C620.725952,1367.001831 648.194763,1383.173340 675.792847,1399.121094 
	C677.135376,1399.896851 679.586243,1400.174561 680.837769,1399.470215 
	C694.440613,1391.815063 707.906860,1383.917480 721.410156,1376.085449 
	C739.275085,1365.723511 757.107605,1355.305054 775.014648,1345.016357 
	C789.964722,1336.427002 805.061096,1328.091553 819.986633,1319.460205 
	C841.663513,1306.924438 863.199158,1294.144165 884.880371,1281.615845 
	C905.720581,1269.573608 926.714844,1257.798096 947.558777,1245.762207 
	C973.891846,1230.556519 1000.103943,1215.141235 1026.438110,1199.937256 
	C1049.678223,1186.519531 1073.058472,1173.344238 1096.296631,1159.923096 
	C1123.765381,1144.058838 1151.126343,1128.008179 1178.575073,1112.109009 
	C1198.666626,1100.471313 1218.824219,1088.947754 1239.000000,1077.345947 
	C1239.000000,1075.217163 1239.000000,1073.221558 1239.000000,1071.225952 
	C1239.000000,873.065125 1238.918945,674.904236 1239.216309,476.743866 
	C1239.233032,465.721771 1238.853760,456.698425 1226.187866,453.545807 
	C1224.845703,453.211761 1223.768921,451.905029 1222.500366,451.167755 
	C1206.757080,442.017883 1191.012451,432.870270 1175.245117,423.761719 
	C1159.190552,414.487305 1143.120972,405.238708 1127.038818,396.012482 
	C1112.649292,387.757385 1098.196533,379.612366 1083.838989,371.302368 
	C1066.104126,361.037659 1048.485229,350.572388 1030.730103,340.343231 
	C1013.961853,330.682617 997.036682,321.294556 980.263489,311.642456 
	C961.798401,301.016693 943.443237,290.200073 925.011780,279.515594 
	C907.705627,269.483398 890.365601,259.509521 873.034607,249.520218 
	C855.848267,239.614304 838.647522,229.733475 821.466431,219.818481 
	C807.096008,211.525421 792.738770,203.209564 778.386780,194.884598 
	C760.800476,184.683578 743.236816,174.443542 725.642578,164.256302 
	C711.570312,156.108307 697.416077,148.099915 683.419800,139.824127 
	C680.580933,138.145569 678.239929,137.527557 675.286133,139.272293 
	C664.640991,145.560028 653.958984,151.786804 643.238525,157.945435 
	C616.450378,173.334579 589.608459,188.630310 562.835388,204.045502 
	C537.466187,218.652359 512.165710,233.378418 486.818909,248.024216 
	C463.723846,261.368927 440.607178,274.676239 416.960266,288.522797 
z"/>
<path fill="#000000" opacity="1.000000" stroke="none" 
	d="
M681.468628,1537.000000 
	C683.526794,1535.038452 685.865234,1532.750244 688.610107,1531.166748 
	C711.854126,1517.757080 735.216797,1504.552856 758.455383,1491.133789 
	C780.139587,1478.612427 801.678406,1465.839233 823.350708,1453.296997 
	C842.073792,1442.461914 860.931763,1431.860107 879.661987,1421.037231 
	C899.655151,1409.484741 919.531006,1397.729004 939.528259,1386.183472 
	C955.436707,1376.998779 971.505310,1368.091309 987.405029,1358.891602 
	C1010.214355,1345.693970 1032.888672,1332.262817 1055.706055,1319.078979 
	C1078.941040,1305.653442 1102.321411,1292.479492 1125.561157,1279.062134 
	C1149.497803,1265.242310 1173.302002,1251.192871 1197.240234,1237.375488 
	C1214.000122,1227.701538 1230.939209,1218.338379 1247.703125,1208.671265 
	C1263.199097,1199.735229 1278.521362,1190.497803 1294.007812,1181.545044 
	C1308.367188,1173.243774 1322.849243,1165.155151 1337.263916,1156.948975 
	C1343.614380,1153.333740 1349.931641,1149.659424 1356.631958,1146.005981 
	C1357.000000,1276.279907 1357.000000,1406.559814 1357.000000,1537.000000 
	C1131.979126,1537.000000 906.958252,1537.000000 681.468628,1537.000000 
z"/>
<path fill="#000000" opacity="1.000000" stroke="none" 
	d="
M1.000009,1146.468628 
	C12.140640,1152.308105 23.324102,1158.541992 34.411568,1164.942261 
	C49.899654,1173.883057 65.298607,1182.978027 80.767731,1191.951782 
	C99.465935,1202.798584 118.183868,1213.611694 136.918991,1224.394531 
	C152.979416,1233.638062 169.088379,1242.797241 185.153351,1252.032715 
	C201.221634,1261.270386 217.277176,1270.530151 233.310364,1279.828491 
	C247.094727,1287.822510 260.802734,1295.948853 274.611755,1303.899780 
	C290.668182,1313.145020 306.821869,1322.221069 322.888519,1331.448608 
	C337.121826,1339.623291 351.307983,1347.880371 365.489838,1356.144165 
	C392.181671,1371.697266 418.801239,1387.375000 445.554443,1402.821411 
	C465.406830,1414.283813 485.492157,1425.342529 505.347260,1436.800293 
	C526.320007,1448.903076 547.095032,1461.348022 568.046997,1473.487183 
	C582.958557,1482.126587 598.069458,1490.421753 613.002869,1499.024048 
	C633.144653,1510.626465 653.207947,1522.365112 673.274963,1534.096680 
	C674.225525,1534.652588 674.885010,1535.706055 675.340088,1536.763916 
	C450.425598,1537.000000 225.851227,1537.000000 1.000000,1537.000000 
	C1.000000,1406.979248 1.000000,1276.958252 1.000009,1146.468628 
z"/>
<path fill="#000000" opacity="1.000000" stroke="none" 
	d="
M1357.000000,390.531311 
	C1355.325806,390.497833 1353.475342,390.299896 1352.004272,389.447235 
	C1334.289307,379.178741 1316.670776,368.743744 1298.945068,358.494110 
	C1282.905884,349.219727 1266.723267,340.193512 1250.681274,330.924011 
	C1232.804688,320.594482 1215.037109,310.076508 1197.181519,299.710541 
	C1182.979004,291.465271 1168.708130,283.338104 1154.481079,275.134949 
	C1138.009888,265.637878 1121.561523,256.101196 1105.088257,246.607758 
	C1090.858276,238.407104 1076.607422,230.242737 1062.365723,222.062469 
	C1046.865234,213.159103 1031.350098,204.281174 1015.868042,195.345825 
	C999.539001,185.921646 983.251587,176.425171 966.927063,166.993088 
	C950.880981,157.721878 934.792175,148.524460 918.757385,139.233841 
	C904.971680,131.246353 891.252869,123.143440 877.473206,115.145424 
	C861.029297,105.601059 844.562500,96.095917 828.086121,86.607735 
	C813.997314,78.494484 799.880737,70.429558 785.776855,62.342537 
	C770.267944,53.449890 754.737793,44.593845 739.257019,35.652374 
	C724.757568,27.277657 710.289429,18.847958 695.852478,10.365897 
	C691.167175,7.613170 686.623779,4.618797 682.007751,1.367481 
	C906.907654,1.000000 1131.815308,1.000000 1357.000000,1.000000 
	C1357.000000,130.687424 1357.000000,260.375061 1357.000000,390.531311 
z"/>
<path fill="#000000" opacity="1.000000" stroke="none" 
	d="
M674.531372,1.000008 
	C674.071350,2.117295 673.360291,3.605131 672.181824,4.297030 
	C649.748718,17.467875 627.302002,30.616796 604.770203,43.617779 
	C588.012756,53.286915 571.076904,62.646885 554.316895,72.311653 
	C534.175476,83.926300 514.158875,95.757141 494.045135,107.420059 
	C479.834290,115.660210 465.546600,123.767868 451.302643,131.951080 
	C435.798431,140.858261 420.309570,149.792206 404.805603,158.699844 
	C391.836578,166.151016 378.839264,173.553009 365.883606,181.027298 
	C348.137512,191.265259 330.418427,201.550064 312.688812,211.816574 
	C298.761261,219.881485 284.843201,227.962860 270.906494,236.011948 
	C254.854568,245.282715 238.781891,254.517548 222.727310,263.783752 
	C208.505829,271.991913 194.300293,280.227692 180.081451,288.440399 
	C164.312119,297.548676 148.526672,306.628998 132.765045,315.750519 
	C118.834267,323.812500 104.927261,331.915588 91.008438,339.998199 
	C77.089699,348.080780 63.183937,356.185822 49.245792,364.234772 
	C33.764946,373.174591 18.254997,382.064087 2.746141,390.955292 
	C2.491869,391.101074 2.090261,390.989899 1.378698,390.999298 
	C1.000000,261.053436 1.000000,131.106903 1.000000,1.000000 
	C225.354202,1.000000 449.708435,1.000000 674.531372,1.000008 
z"/>
<path fill="#000000" opacity="1.000000" stroke="none" 
	d="
M417.230133,288.261414 
	C440.607178,274.676239 463.723846,261.368927 486.818909,248.024216 
	C512.165710,233.378418 537.466187,218.652359 562.835388,204.045502 
	C589.608459,188.630310 616.450378,173.334579 643.238525,157.945435 
	C653.958984,151.786804 664.640991,145.560028 675.286133,139.272293 
	C678.239929,137.527557 680.580933,138.145569 683.419800,139.824127 
	C697.416077,148.099915 711.570312,156.108307 725.642578,164.256302 
	C743.236816,174.443542 760.800476,184.683578 778.386780,194.884598 
	C792.738770,203.209564 807.096008,211.525421 821.466431,219.818481 
	C838.647522,229.733475 855.848267,239.614304 873.034607,249.520218 
	C890.365601,259.509521 907.705627,269.483398 925.011780,279.515594 
	C943.443237,290.200073 961.798401,301.016693 980.263489,311.642456 
	C997.036682,321.294556 1013.961853,330.682617 1030.730103,340.343231 
	C1048.485229,350.572388 1066.104126,361.037659 1083.838989,371.302368 
	C1098.196533,379.612366 1112.649292,387.757385 1127.038818,396.012482 
	C1143.120972,405.238708 1159.190552,414.487305 1175.245117,423.761719 
	C1191.012451,432.870270 1206.757080,442.017883 1222.500366,451.167755 
	C1223.768921,451.905029 1224.845703,453.211761 1226.187866,453.545807 
	C1238.853760,456.698425 1239.233032,465.721771 1239.216309,476.743866 
	C1238.918945,674.904236 1239.000000,873.065125 1239.000000,1071.225952 
	C1239.000000,1073.221558 1239.000000,1075.217163 1239.000000,1077.345947 
	C1218.824219,1088.947754 1198.666626,1100.471313 1178.575073,1112.109009 
	C1151.126343,1128.008179 1123.765381,1144.058838 1096.296631,1159.923096 
	C1073.058472,1173.344238 1049.678223,1186.519531 1026.438110,1199.937256 
	C1000.103943,1215.141235 973.891846,1230.556519 947.558777,1245.762207 
	C926.714844,1257.798096 905.720581,1269.573608 884.880371,1281.615845 
	C863.199158,1294.144165 841.663513,1306.924438 819.986633,1319.460205 
	C805.061096,1328.091553 789.964722,1336.427002 775.014648,1345.016357 
	C757.107605,1355.305054 739.275085,1365.723511 721.410156,1376.085449 
	C707.906860,1383.917480 694.440613,1391.815063 680.837769,1399.470215 
	C679.586243,1400.174561 677.135376,1399.896851 675.792847,1399.121094 
	C648.194763,1383.173340 620.725952,1367.001831 593.128967,1351.052002 
	C565.814148,1335.265381 538.346497,1319.743408 511.018066,1303.980103 
	C481.714172,1287.077393 452.530945,1269.965454 423.226959,1253.062988 
	C395.898346,1237.299805 368.433289,1221.773193 341.115234,1205.991821 
	C314.781219,1190.779175 288.597260,1175.306885 262.275543,1160.072632 
	C237.360962,1145.652954 212.334503,1131.426636 187.392075,1117.054810 
	C167.668976,1105.690430 148.314941,1093.626953 128.145554,1083.125122 
	C120.326591,1079.053955 118.818062,1074.482056 118.826866,1066.492188 
	C119.047295,866.498413 119.021088,666.504272 118.872993,466.510284 
	C118.869453,461.730591 120.249352,459.343231 124.401184,457.016998 
	C142.840302,446.685638 161.010086,435.874695 179.317337,425.306580 
	C197.204117,414.981171 215.169678,404.792114 233.046295,394.449249 
	C257.820984,380.115448 282.515289,365.642578 307.300171,351.326569 
	C325.890533,340.588562 344.600586,330.057922 363.199493,319.334595 
	C379.259125,310.075256 395.230072,300.662170 411.261230,291.353210 
	C413.091583,290.290344 415.057312,289.460602 417.230133,288.261414 
M303.632263,1064.936646 
	C310.130951,1068.630981 316.643188,1072.301880 323.125854,1076.024048 
	C345.264862,1088.735596 367.431183,1101.400391 389.515839,1114.205811 
	C413.431030,1128.072510 437.209167,1142.175903 461.151978,1155.994385 
	C486.784882,1170.788330 512.587219,1185.288818 538.229431,1200.066895 
	C567.539368,1216.958496 596.742676,1234.035156 626.018372,1250.986450 
	C634.070251,1255.648560 639.997925,1252.207886 639.998108,1242.978516 
	C640.000854,1096.661987 640.005737,950.345520 639.983887,804.029053 
	C639.982727,796.327393 636.808228,790.056824 630.311096,785.904175 
	C623.195862,781.356323 615.868347,777.131653 608.543091,772.923157 
	C585.276550,759.556091 561.915466,746.352844 538.688660,732.917236 
	C509.544312,716.058533 480.534149,698.967896 451.393524,682.102783 
	C433.244202,671.598877 414.903320,661.425903 396.751831,650.925659 
	C374.508240,638.058289 352.408447,624.942444 330.177521,612.052917 
	C315.828705,603.733582 301.339996,595.655884 286.943390,587.418457 
	C269.727631,577.567993 252.621490,567.522766 235.310135,557.844055 
	C227.445450,553.446899 222.003571,556.878052 222.003281,565.723633 
	C221.998672,711.873474 221.988037,858.023376 222.032318,1004.173218 
	C222.034760,1012.208862 225.313354,1018.854126 232.341049,1023.016846 
	C255.844971,1036.938965 279.447571,1050.694336 303.632263,1064.936646 
M531.406738,639.067993 
	C545.987000,647.574890 560.540894,656.127380 575.156067,664.574036 
	C586.556335,671.162781 598.066589,677.561279 609.466553,684.150635 
	C623.265808,692.126770 636.940369,700.320251 650.790161,708.206604 
	C656.990906,711.737427 663.198242,715.668762 669.917419,717.779907 
	C679.802734,720.886047 689.115540,718.745728 698.308228,713.142639 
	C717.322571,701.553528 736.988586,691.038391 756.293762,679.920410 
	C778.697815,667.017700 800.966919,653.880798 823.360046,640.959106 
	C844.347595,628.848511 865.457764,616.950623 886.445984,604.841309 
	C909.832764,591.348145 933.133850,577.706482 956.489685,564.159607 
	C970.551697,556.003357 984.644775,547.900513 998.727966,539.780823 
	C1014.788513,530.521118 1030.852661,521.267639 1046.917114,512.014587 
	C1055.084961,507.309967 1063.210083,502.528076 1071.444336,497.942627 
	C1076.517700,495.117371 1076.260620,485.795197 1071.638672,483.207336 
	C1063.698120,478.761292 1055.912231,474.040131 1048.013916,469.517212 
	C1027.129028,457.557373 1006.166138,445.732666 985.332275,433.684875 
	C961.119934,419.683502 937.039124,405.455078 912.847961,391.416840 
	C899.208618,383.501892 885.415283,375.852264 871.775452,367.938080 
	C853.627075,357.407898 835.587158,346.690857 817.450684,336.140045 
	C802.696350,327.556732 787.878723,319.082092 773.070251,310.592133 
	C759.248901,302.668091 745.389893,294.809814 731.571411,286.880768 
	C719.578857,279.999420 707.508240,273.243866 695.681091,266.087372 
	C686.124390,260.304626 676.261108,259.232605 666.484802,264.339661 
	C651.782104,272.020203 637.387573,280.303589 622.998291,288.567871 
	C605.233276,298.770935 587.645874,309.282593 569.911072,319.538727 
	C553.722900,328.900452 537.409973,338.046112 521.206970,347.382263 
	C498.244263,360.613312 475.349091,373.961517 452.393005,387.204071 
	C432.109741,398.904755 411.747223,410.468384 391.484161,422.203827 
	C368.825348,435.326752 346.245514,448.586121 323.618713,461.764404 
	C311.423492,468.867157 299.174286,475.877563 287.003510,483.021729 
	C280.726624,486.706116 280.567719,493.533966 286.826874,497.342621 
	C296.133392,503.005676 305.548187,508.492371 314.958527,513.982788 
	C328.861847,522.094604 342.796600,530.152710 356.727295,538.217529 
	C374.459686,548.483276 392.204865,558.726929 409.938019,568.991394 
	C423.869293,577.055176 437.781525,585.151855 451.718689,593.205383 
	C467.770752,602.481079 483.852448,611.705505 499.898956,620.990723 
	C510.176086,626.937500 520.412964,632.953918 531.406738,639.067993 
M1044.009766,1070.489380 
	C1053.192261,1065.256836 1062.465576,1060.175415 1071.522949,1054.734497 
	C1076.873047,1051.520752 1077.813110,1043.797119 1071.439697,1039.918945 
	C1055.463379,1030.197510 1039.228882,1020.897217 1023.029541,1011.546753 
	C1008.378967,1003.090454 993.610779,994.838318 978.943054,986.411438 
	C960.191467,975.638367 941.488647,964.780457 922.764954,953.958984 
	C909.103455,946.063354 895.445190,938.162415 881.780273,930.272705 
	C864.878235,920.513977 847.985168,910.739624 831.061218,901.018921 
	C816.676147,892.756470 802.229126,884.601990 787.852417,876.325195 
	C768.826477,865.371765 749.912231,854.222168 730.806030,843.411316 
	C723.029053,839.010864 716.874390,843.605347 716.884644,851.751526 
	C717.048279,981.917603 717.046631,1112.083984 716.886108,1242.250122 
	C716.876343,1250.194214 722.710327,1254.966675 730.808167,1250.586182 
	C741.106689,1245.015015 751.183105,1239.033569 761.366150,1233.248291 
	C778.193115,1223.688477 795.080261,1214.233398 811.847473,1204.570190 
	C831.852478,1193.041138 851.722656,1181.278320 871.716553,1169.729858 
	C890.307251,1158.991821 909.013916,1148.454712 927.614624,1137.733643 
	C948.326294,1125.795898 968.955200,1113.714233 989.658813,1101.762451 
	C1007.545837,1091.436768 1025.487183,1081.205322 1044.009766,1070.489380 
z"/>
<path fill="#FF4A6A" opacity="1.000000" stroke="none" 
	d="
M303.322327,1064.725098 
	C279.447571,1050.694336 255.844971,1036.938965 232.341049,1023.016846 
	C225.313354,1018.854126 222.034760,1012.208862 222.032318,1004.173218 
	C221.988037,858.023376 221.998672,711.873474 222.003281,565.723633 
	C222.003571,556.878052 227.445450,553.446899 235.310135,557.844055 
	C252.621490,567.522766 269.727631,577.567993 286.943390,587.418457 
	C301.339996,595.655884 315.828705,603.733582 330.177521,612.052917 
	C352.408447,624.942444 374.508240,638.058289 396.751831,650.925659 
	C414.903320,661.425903 433.244202,671.598877 451.393524,682.102783 
	C480.534149,698.967896 509.544312,716.058533 538.688660,732.917236 
	C561.915466,746.352844 585.276550,759.556091 608.543091,772.923157 
	C615.868347,777.131653 623.195862,781.356323 630.311096,785.904175 
	C636.808228,790.056824 639.982727,796.327393 639.983887,804.029053 
	C640.005737,950.345520 640.000854,1096.661987 639.998108,1242.978516 
	C639.997925,1252.207886 634.070251,1255.648560 626.018372,1250.986450 
	C596.742676,1234.035156 567.539368,1216.958496 538.229431,1200.066895 
	C512.587219,1185.288818 486.784882,1170.788330 461.151978,1155.994385 
	C437.209167,1142.175903 413.431030,1128.072510 389.515839,1114.205811 
	C367.431183,1101.400391 345.264862,1088.735596 323.125854,1076.024048 
	C316.643188,1072.301880 310.130951,1068.630981 303.322327,1064.725098 
z"/>
<path fill="#FF4A6A" opacity="1.000000" stroke="none" 
	d="
M531.037354,639.003540 
	C520.412964,632.953918 510.176086,626.937500 499.898956,620.990723 
	C483.852448,611.705505 467.770752,602.481079 451.718689,593.205383 
	C437.781525,585.151855 423.869293,577.055176 409.938019,568.991394 
	C392.204865,558.726929 374.459686,548.483276 356.727295,538.217529 
	C342.796600,530.152710 328.861847,522.094604 314.958527,513.982788 
	C305.548187,508.492371 296.133392,503.005676 286.826874,497.342621 
	C280.567719,493.533966 280.726624,486.706116 287.003510,483.021729 
	C299.174286,475.877563 311.423492,468.867157 323.618713,461.764404 
	C346.245514,448.586121 368.825348,435.326752 391.484161,422.203827 
	C411.747223,410.468384 432.109741,398.904755 452.393005,387.204071 
	C475.349091,373.961517 498.244263,360.613312 521.206970,347.382263 
	C537.409973,338.046112 553.722900,328.900452 569.911072,319.538727 
	C587.645874,309.282593 605.233276,298.770935 622.998291,288.567871 
	C637.387573,280.303589 651.782104,272.020203 666.484802,264.339661 
	C676.261108,259.232605 686.124390,260.304626 695.681091,266.087372 
	C707.508240,273.243866 719.578857,279.999420 731.571411,286.880768 
	C745.389893,294.809814 759.248901,302.668091 773.070251,310.592133 
	C787.878723,319.082092 802.696350,327.556732 817.450684,336.140045 
	C835.587158,346.690857 853.627075,357.407898 871.775452,367.938080 
	C885.415283,375.852264 899.208618,383.501892 912.847961,391.416840 
	C937.039124,405.455078 961.119934,419.683502 985.332275,433.684875 
	C1006.166138,445.732666 1027.129028,457.557373 1048.013916,469.517212 
	C1055.912231,474.040131 1063.698120,478.761292 1071.638672,483.207336 
	C1076.260620,485.795197 1076.517700,495.117371 1071.444336,497.942627 
	C1063.210083,502.528076 1055.084961,507.309967 1046.917114,512.014587 
	C1030.852661,521.267639 1014.788513,530.521118 998.727966,539.780823 
	C984.644775,547.900513 970.551697,556.003357 956.489685,564.159607 
	C933.133850,577.706482 909.832764,591.348145 886.445984,604.841309 
	C865.457764,616.950623 844.347595,628.848511 823.360046,640.959106 
	C800.966919,653.880798 778.697815,667.017700 756.293762,679.920410 
	C736.988586,691.038391 717.322571,701.553528 698.308228,713.142639 
	C689.115540,718.745728 679.802734,720.886047 669.917419,717.779907 
	C663.198242,715.668762 656.990906,711.737427 650.790161,708.206604 
	C636.940369,700.320251 623.265808,692.126770 609.466553,684.150635 
	C598.066589,677.561279 586.556335,671.162781 575.156067,664.574036 
	C560.540894,656.127380 545.987000,647.574890 531.037354,639.003540 
z"/>
<path fill="#FF4A6A" opacity="1.000000" stroke="none" 
	d="
M1043.707031,1070.710693 
	C1025.487183,1081.205322 1007.545837,1091.436768 989.658813,1101.762451 
	C968.955200,1113.714233 948.326294,1125.795898 927.614624,1137.733643 
	C909.013916,1148.454712 890.307251,1158.991821 871.716553,1169.729858 
	C851.722656,1181.278320 831.852478,1193.041138 811.847473,1204.570190 
	C795.080261,1214.233398 778.193115,1223.688477 761.366150,1233.248291 
	C751.183105,1239.033569 741.106689,1245.015015 730.808167,1250.586182 
	C722.710327,1254.966675 716.876343,1250.194214 716.886108,1242.250122 
	C717.046631,1112.083984 717.048279,981.917603 716.884644,851.751526 
	C716.874390,843.605347 723.029053,839.010864 730.806030,843.411316 
	C749.912231,854.222168 768.826477,865.371765 787.852417,876.325195 
	C802.229126,884.601990 816.676147,892.756470 831.061218,901.018921 
	C847.985168,910.739624 864.878235,920.513977 881.780273,930.272705 
	C895.445190,938.162415 909.103455,946.063354 922.764954,953.958984 
	C941.488647,964.780457 960.191467,975.638367 978.943054,986.411438 
	C993.610779,994.838318 1008.378967,1003.090454 1023.029541,1011.546753 
	C1039.228882,1020.897217 1055.463379,1030.197510 1071.439697,1039.918945 
	C1077.813110,1043.797119 1076.873047,1051.520752 1071.522949,1054.734497 
	C1062.465576,1060.175415 1053.192261,1065.256836 1043.707031,1070.710693 
z"/>
</svg>