<svg version="1.1" id="Layer_1" xmlns="http://www.w3.org/2000/svg" xmlns:xlink="http://www.w3.org/1999/xlink" x="0px" y="0px"
	 width="100%" viewBox="0 0 512 512" enable-background="new 0 0 512 512" xml:space="preserve">
<path fill="#FFFFFF" opacity="1.000000" stroke="none" 
	d="
M513.000000,173.000000 
	C513.000000,286.639038 513.000000,399.778076 513.000000,512.958557 
	C342.402618,512.958557 171.805222,512.958557 1.103918,512.958557 
	C1.103918,342.444336 1.103918,171.888565 1.103918,1.166402 
	C171.666534,1.166402 342.333252,1.166402 513.000000,1.166402 
	C513.000000,58.194736 513.000000,115.347366 513.000000,173.000000 
M259.946869,511.988312 
	C333.927277,511.988312 407.907684,511.988312 482.000000,511.988312 
	C482.000000,500.676300 482.013397,490.031830 481.997528,479.387421 
	C481.949554,447.268799 481.890228,415.150177 481.987793,382.102722 
	C481.992157,299.554718 481.997223,217.006729 481.993988,134.458725 
	C481.993927,133.297928 481.890289,132.137115 481.988312,130.053040 
	C481.988312,87.493690 481.988312,44.934345 481.988312,2.000000 
	C479.809692,2.000000 478.016022,2.000000 476.222351,2.000000 
	C407.815613,2.000000 339.408875,1.997242 271.002136,2.007036 
	C267.011810,2.007608 263.021454,2.109772 258.197815,2.012477 
	C256.790741,2.063321 255.383682,2.114164 253.053284,2.011667 
	C179.072891,2.011667 105.092491,2.011667 31.000000,2.011667 
	C31.000000,13.323483 30.986618,23.967907 31.002504,34.612289 
	C31.050440,66.730896 31.109749,98.849487 31.012199,131.896927 
	C31.007828,214.445053 31.002773,296.993164 31.005978,379.541290 
	C31.006023,380.702087 31.109690,381.862915 31.011665,383.946991 
	C31.011665,426.506287 31.011665,469.065582 31.011665,512.000000 
	C33.199661,512.000000 34.988571,512.000000 36.777477,512.000000 
	C105.184135,512.000000 173.590790,512.002747 241.997452,511.992950 
	C245.987778,511.992371 249.978104,511.890259 254.801804,511.987579 
	C256.209076,511.936707 257.616333,511.885864 259.946869,511.988312 
z"/>
<path fill="#000F24" opacity="1.000000" stroke="none" 
	d="
M31.164999,383.023682 
	C31.109690,381.862915 31.006023,380.702087 31.005978,379.541290 
	C31.002773,296.993164 31.007828,214.445053 31.390335,131.282867 
	C66.157433,110.930405 100.567902,91.229347 134.929062,71.442650 
	C166.698257,53.148499 198.428391,34.786320 230.144714,16.400614 
	C238.149490,11.760311 246.035843,6.915714 253.976608,2.165005 
	C255.383682,2.114164 256.790741,2.063321 258.783356,2.376944 
	C260.186920,3.293615 260.974701,3.898219 261.827484,4.390218 
	C276.914764,13.094791 292.007568,21.789845 307.104095,30.478415 
	C325.222198,40.906013 343.341644,51.331364 361.466614,61.747013 
	C380.022430,72.410233 398.592346,83.048996 417.143951,93.719528 
	C438.714508,106.126503 460.271912,118.556374 481.835022,130.976318 
	C481.890289,132.137115 481.993927,133.297928 481.993988,134.458725 
	C481.997223,217.006729 481.992157,299.554718 481.609711,382.716919 
	C446.842682,403.069519 412.432190,422.770599 378.071075,442.557312 
	C346.301849,460.851440 314.571716,479.213654 282.855377,497.599365 
	C274.850616,502.239685 266.964325,507.084290 259.023590,511.835022 
	C257.616333,511.885864 256.209076,511.936707 254.216370,511.623047 
	C252.812958,510.706329 252.025223,510.101685 251.172485,509.609680 
	C236.085175,500.905121 220.992340,492.210144 205.895813,483.521576 
	C187.777695,473.093964 169.658264,462.668671 151.533295,452.252991 
	C132.977493,441.589722 114.407646,430.950897 95.856041,420.280365 
	C74.285507,407.873413 52.728100,395.443604 31.164999,383.023682 
M235.587082,454.918335 
	C240.922348,457.975189 246.415680,460.792511 251.537674,464.172546 
	C254.993790,466.453217 257.534271,466.491302 261.264893,464.328217 
	C320.362579,430.061920 379.561615,395.970154 438.807617,361.960663 
	C441.938477,360.163422 443.070374,358.303162 443.063019,354.643616 
	C442.932007,289.501190 442.941498,224.358398 443.043579,159.215881 
	C443.048859,155.845688 442.113007,153.936737 439.119751,152.217285 
	C379.450989,117.941208 319.836304,83.570786 260.270660,49.115784 
	C257.475311,47.498837 255.487915,47.524353 252.711121,49.130318 
	C193.143143,83.581451 133.529556,117.953873 73.857948,152.225159 
	C70.842094,153.957260 69.954941,155.891357 69.959938,159.239166 
	C70.057182,224.381714 70.068878,289.524506 69.935265,354.666901 
	C69.927727,358.342682 71.096901,360.181610 74.213615,361.970459 
	C127.839165,392.749390 181.389587,423.659210 235.587082,454.918335 
z"/>
<path fill="#000000" opacity="1.000000" stroke="none" 
	d="
M253.514954,2.088335 
	C246.035843,6.915714 238.149490,11.760311 230.144714,16.400614 
	C198.428391,34.786320 166.698257,53.148499 134.929062,71.442650 
	C100.567902,91.229347 66.157433,110.930405 31.466547,130.818451 
	C31.109749,98.849487 31.050440,66.730896 31.002504,34.612289 
	C30.986618,23.967907 31.000000,13.323483 31.000000,2.011667 
	C105.092491,2.011667 179.072891,2.011667 253.514954,2.088335 
z"/>
<path fill="#000000" opacity="1.000000" stroke="none" 
	d="
M481.911682,130.514679 
	C460.271912,118.556374 438.714508,106.126503 417.143951,93.719528 
	C398.592346,83.048996 380.022430,72.410233 361.466614,61.747013 
	C343.341644,51.331364 325.222198,40.906013 307.104095,30.478415 
	C292.007568,21.789845 276.914764,13.094791 261.827484,4.390218 
	C260.974701,3.898219 260.186920,3.293615 259.200012,2.453034 
	C263.021454,2.109772 267.011810,2.007608 271.002136,2.007036 
	C339.408875,1.997242 407.815613,2.000000 476.222351,2.000000 
	C478.016022,2.000000 479.809692,2.000000 481.988312,2.000000 
	C481.988312,44.934345 481.988312,87.493690 481.911682,130.514679 
z"/>
<path fill="#000000" opacity="1.000000" stroke="none" 
	d="
M31.088335,383.485352 
	C52.728100,395.443604 74.285507,407.873413 95.856041,420.280365 
	C114.407646,430.950897 132.977493,441.589722 151.533295,452.252991 
	C169.658264,462.668671 187.777695,473.093964 205.895813,483.521576 
	C220.992340,492.210144 236.085175,500.905121 251.172485,509.609680 
	C252.025223,510.101685 252.812958,510.706329 253.799683,511.546936 
	C249.978104,511.890259 245.987778,511.992371 241.997452,511.992950 
	C173.590790,512.002747 105.184135,512.000000 36.777477,512.000000 
	C34.988571,512.000000 33.199661,512.000000 31.011665,512.000000 
	C31.011665,469.065582 31.011665,426.506287 31.088335,383.485352 
z"/>
<path fill="#000000" opacity="1.000000" stroke="none" 
	d="
M259.485229,511.911682 
	C266.964325,507.084290 274.850616,502.239685 282.855377,497.599365 
	C314.571716,479.213654 346.301849,460.851440 378.071075,442.557312 
	C412.432190,422.770599 446.842682,403.069519 481.533508,383.181335 
	C481.890228,415.150177 481.949554,447.268799 481.997528,479.387421 
	C482.013397,490.031830 482.000000,500.676300 482.000000,511.988312 
	C407.907684,511.988312 333.927277,511.988312 259.485229,511.911682 
z"/>
<path fill="#FEFEFE" opacity="1.000000" stroke="none" 
	d="
M235.271774,454.729340 
	C181.389587,423.659210 127.839165,392.749390 74.213615,361.970459 
	C71.096901,360.181610 69.927727,358.342682 69.935265,354.666901 
	C70.068878,289.524506 70.057182,224.381714 69.959938,159.239166 
	C69.954941,155.891357 70.842094,153.957260 73.857948,152.225159 
	C133.529556,117.953873 193.143143,83.581451 252.711121,49.130318 
	C255.487915,47.524353 257.475311,47.498837 260.270660,49.115784 
	C319.836304,83.570786 379.450989,117.941208 439.119751,152.217285 
	C442.113007,153.936737 443.048859,155.845688 443.043579,159.215881 
	C442.941498,224.358398 442.932007,289.501190 443.063019,354.643616 
	C443.070374,358.303162 441.938477,360.163422 438.807617,361.960663 
	C379.561615,395.970154 320.362579,430.061920 261.264893,464.328217 
	C257.534271,466.491302 254.993790,466.453217 251.537674,464.172546 
	C246.415680,460.792511 240.922348,457.975189 235.271774,454.729340 
M243.508545,296.500275 
	C243.508545,288.168213 243.337830,279.831360 243.573532,271.505951 
	C243.711487,266.632721 241.979172,263.474640 237.663406,261.000610 
	C195.403107,236.774734 153.230927,212.395142 111.023010,188.077805 
	C105.755615,185.043106 104.780144,185.626419 104.778496,191.767197 
	C104.765892,238.760300 104.824753,285.753540 104.693901,332.746277 
	C104.680092,337.705048 106.500801,340.673218 110.761719,343.115540 
	C152.734467,367.173737 194.618958,391.385864 236.532349,415.547638 
	C242.595337,419.042755 243.503860,418.514130 243.505173,411.483582 
	C243.512268,373.489166 243.508499,335.494720 243.508545,296.500275 
M137.239029,155.748550 
	C134.495285,157.314682 131.743713,158.867294 129.009415,160.449722 
	C123.011330,163.921082 123.008911,165.091080 129.032455,168.565002 
	C168.926331,191.572876 208.861435,214.509735 248.678864,237.649109 
	C254.238403,240.879929 258.923035,240.774902 264.455536,237.559174 
	C303.983368,214.583893 343.634766,191.821152 383.246399,168.990036 
	C390.196533,164.984177 390.222473,164.010040 383.433533,160.098846 
	C343.817230,137.275528 304.151611,114.537033 264.630066,91.550804 
	C258.907379,88.222404 254.168686,88.168823 248.432770,91.507835 
	C211.649597,112.920174 174.719635,134.080383 137.239029,155.748550 
M360.572662,367.059875 
	C368.352875,362.574310 376.136475,358.094635 383.912109,353.601257 
	C389.929047,350.124237 389.946136,348.884460 384.015472,345.462952 
	C348.146698,324.769623 312.276611,304.078583 276.402588,283.394379 
	C270.455261,279.965271 269.443878,280.575165 269.442505,287.616180 
	C269.434326,328.919678 269.433380,370.223206 269.443542,411.526703 
	C269.445282,418.499329 270.424683,419.041321 276.521027,415.525940 
	C304.325836,399.492310 332.127533,383.453278 360.572662,367.059875 
z"/>
<path fill="#011025" opacity="1.000000" stroke="none" 
	d="
M243.508514,297.000305 
	C243.508499,335.494720 243.512268,373.489166 243.505173,411.483582 
	C243.503860,418.514130 242.595337,419.042755 236.532349,415.547638 
	C194.618958,391.385864 152.734467,367.173737 110.761719,343.115540 
	C106.500801,340.673218 104.680092,337.705048 104.693901,332.746277 
	C104.824753,285.753540 104.765892,238.760300 104.778496,191.767197 
	C104.780144,185.626419 105.755615,185.043106 111.023010,188.077805 
	C153.230927,212.395142 195.403107,236.774734 237.663406,261.000610 
	C241.979172,263.474640 243.711487,266.632721 243.573532,271.505951 
	C243.337830,279.831360 243.508545,288.168213 243.508514,297.000305 
z"/>
<path fill="#011025" opacity="1.000000" stroke="none" 
	d="
M137.538483,155.536011 
	C174.719635,134.080383 211.649597,112.920174 248.432770,91.507835 
	C254.168686,88.168823 258.907379,88.222404 264.630066,91.550804 
	C304.151611,114.537033 343.817230,137.275528 383.433533,160.098846 
	C390.222473,164.010040 390.196533,164.984177 383.246399,168.990036 
	C343.634766,191.821152 303.983368,214.583893 264.455536,237.559174 
	C258.923035,240.774902 254.238403,240.879929 248.678864,237.649109 
	C208.861435,214.509735 168.926331,191.572876 129.032455,168.565002 
	C123.008911,165.091080 123.011330,163.921082 129.009415,160.449722 
	C131.743713,158.867294 134.495285,157.314682 137.538483,155.536011 
z"/>
<path fill="#EE3032" opacity="1.000000" stroke="none" 
	d="
M360.251526,367.238037 
	C332.127533,383.453278 304.325836,399.492310 276.521027,415.525940 
	C270.424683,419.041321 269.445282,418.499329 269.443542,411.526703 
	C269.433380,370.223206 269.434326,328.919678 269.442505,287.616180 
	C269.443878,280.575165 270.455261,279.965271 276.402588,283.394379 
	C312.276611,304.078583 348.146698,324.769623 384.015472,345.462952 
	C389.946136,348.884460 389.929047,350.124237 383.912109,353.601257 
	C376.136475,358.094635 368.352875,362.574310 360.251526,367.238037 
z"/>
</svg>