<?xml version="1.0" standalone="yes"?>
<svg xmlns="http://www.w3.org/2000/svg" width="202" height="202">
<path style="fill:#010101; stroke:none;" d="M0 0L0 202L202 202L202 0L0 0z"/>
<path style="fill:#ff6d37; stroke:none;" d="M87 1.42824C72.6935 3.4778 59.2886 8.1945 47 15.814C36.3243 22.4335 27.3843 30.956 19.8958 41C-32.3091 111.021 28.7096 212.928 115 200.572C129.269 198.528 142.737 193.79 155 186.186C165.676 179.566 174.616 171.044 182.104 161C234.306 90.9833 173.285 -10.9331 87 1.42824z"/>
<path style="fill:#ff8e5e; stroke:none;" d="M76 3L77 4L76 3M132 5L133 6L132 5M144.667 38.3333L145.333 38.6667L144.667 38.3333z"/>
<path style="fill:#ffbca4; stroke:none;" d="M146 38L146 39L151 39L146 38z"/>
<path style="fill:#ff8e5e; stroke:none;" d="M151 38L152 39L151 38z"/>
<path style="fill:#ffbca4; stroke:none;" d="M142 39L143 40L142 39z"/>
<path style="fill:#fffdfc; stroke:none;" d="M154 67L146.056 56L157 41C154.018 39.7419 151.273 39.0177 148 39.0301C125.882 39.1141 131.362 73.6916 154 67z"/>
<path style="fill:#ffbca4; stroke:none;" d="M153 39L154 40L153 39z"/>
<path style="fill:#ff8e5e; stroke:none;" d="M154 39L155 40L154 39z"/>
<path style="fill:#ffbca4; stroke:none;" d="M140 40L141 41L140 40z"/>
<path style="fill:#ff8e5e; stroke:none;" d="M156 40L157 41L156 40M138 41L139 42L138 41z"/>
<path style="fill:#ffbca4; stroke:none;" d="M157 41L158 42L157 41z"/>
<path style="fill:#ff8e5e; stroke:none;" d="M137 42L138 43L137 42M157 42L158 43L157 42M136 43L137 44L136 43M156 43L157 44L156 43z"/>
<path style="fill:#ffbca4; stroke:none;" d="M159 43L161 45L159 43z"/>
<path style="fill:#ff8e5e; stroke:none;" d="M183 43L184 44L183 43M155 44L156 45L155 44z"/>
<path style="fill:#fffdfc; stroke:none;" d="M156 66L157 66C163.178 59.1116 164.617 52.2431 160 44C147.212 49.9637 146.956 56.9495 156 66z"/>
<path style="fill:#ffbca4; stroke:none;" d="M135 45L136 46L135 45z"/>
<path style="fill:#ff8e5e; stroke:none;" d="M154 45L155 46L154 45M161 45L162 46L161 45M134 46L135 47L134 46M153 46L154 47L153 46z"/>
<path style="fill:#ffbca4; stroke:none;" d="M161 46L162 47L161 46z"/>
<path style="fill:#ff8e5e; stroke:none;" d="M185 46L186 47L185 46z"/>
<path style="fill:#ffbca4; stroke:none;" d="M134 47L135 48L134 47z"/>
<path style="fill:#ff8e5e; stroke:none;" d="M152 47L153 48L152 47M162 47L163 48L162 47M151 48L152 49L151 48z"/>
<path style="fill:#ffbca4; stroke:none;" d="M162 48L163 49L162 48M133.333 49.6667L133.667 50.3333L133.333 49.6667z"/>
<path style="fill:#ff8e5e; stroke:none;" d="M150 49L151 50L150 49M149 50L150 51L149 50M148 51L149 52L148 51M158 51L159 52L158 51z"/>
<path style="fill:#ffbca4; stroke:none;" d="M159 51L160 52L159 51z"/>
<path style="fill:#ff8e5e; stroke:none;" d="M163.333 51.6667L163.667 52.3333L163.333 51.6667M147 52L148 53L147 52z"/>
<path style="fill:#ffbca4; stroke:none;" d="M157 52L158 53L157 52z"/>
<path style="fill:#ff6d37; stroke:none;" d="M158 52L157 58L160 52L158 52z"/>
<path style="fill:#ff8e5e; stroke:none;" d="M146 53L147 54L146 53z"/>
<path style="fill:#ffbca4; stroke:none;" d="M160.333 53.6667L160.667 54.3333L160.333 53.6667M163 53L164 54L163 53z"/>
<path style="fill:#ff8e5e; stroke:none;" d="M145 54L146 55L145 54M163.333 54.6667L163.667 55.3333L163.333 54.6667M144.333 55.6667L144.667 56.3333L144.333 55.6667z"/>
<path style="fill:#ffbca4; stroke:none;" d="M133.333 56.6667L133.667 57.3333L133.333 56.6667z"/>
<path style="fill:#ff8e5e; stroke:none;" d="M157 56L158 57L157 56M159 56L160 57L159 56z"/>
<path style="fill:#ffbca4; stroke:none;" d="M159 57L160 58L159 57z"/>
<path style="fill:#ff8e5e; stroke:none;" d="M133 58L134 59L133 58z"/>
<path style="fill:#ffbca4; stroke:none;" d="M158 58L159 59L158 58M162 58L163 59L162 58M134 59L135 60L134 59z"/>
<path style="fill:#ff8e5e; stroke:none;" d="M162 59L163 60L162 59M134 60L135 61L134 60z"/>
<path style="fill:#ffbca4; stroke:none;" d="M161 60L162 61L161 60z"/>
<path style="fill:#ff8e5e; stroke:none;" d="M126 61L126 62L130 62L126 61z"/>
<path style="fill:#ffbca4; stroke:none;" d="M135 61L136 62L135 61z"/>
<path style="fill:#ff8e5e; stroke:none;" d="M161 61L162 62L161 61M123 62L124 63L123 62z"/>
<path style="fill:#ffbca4; stroke:none;" d="M124 62L125 63L124 62z"/>
<path style="fill:#fffdfc; stroke:none;" d="M85 95L85 96L92 103L93 103L133 64C127.328 60.1305 121.07 63.589 116 67.0293C104.449 74.8674 94.8193 85.1807 85 95z"/>
<path style="fill:#ffbca4; stroke:none;" d="M131 62L132 63L131 62z"/>
<path style="fill:#ff8e5e; stroke:none;" d="M132 62L133 63L132 62z"/>
<path style="fill:#ffbca4; stroke:none;" d="M160 62L161 63L160 62M121 63L122 64L121 63z"/>
<path style="fill:#ff8e5e; stroke:none;" d="M133 63L133 65L135 65L133 63M136 63L137 64L136 63z"/>
<path style="fill:#ffbca4; stroke:none;" d="M159 63L160 64L159 63z"/>
<path style="fill:#ff8e5e; stroke:none;" d="M119 64L120 65L119 64z"/>
<path style="fill:#ffbca4; stroke:none;" d="M132 64L133 65L132 64z"/>
<path style="fill:#ff8e5e; stroke:none;" d="M137 64L138 65L137 64z"/>
<path style="fill:#ffbca4; stroke:none;" d="M158 64L159 65L158 64M118 65L119 66L118 65M130 65L131 66L130 65M157 65L158 66L157 65z"/>
<path style="fill:#ff8e5e; stroke:none;" d="M116 66L117 67L116 66M129 66L130 67L129 66z"/>
<path style="fill:#ffbca4; stroke:none;" d="M132 66L133 67L132 66z"/>
<path style="fill:#fffdfc; stroke:none;" d="M94 104C95.5034 105.948 97.1099 108.395 100.005 107.657C103.611 106.736 107.274 102.245 110 99.8449C118.001 92.8023 134.753 83.0434 138.712 73.0039C140.195 69.2444 136.828 65.8009 132.996 66.8511C128.281 68.1434 124.312 73.6881 121 77L110 88L94 104z"/>
<path style="fill:#ffbca4; stroke:none;" d="M136 66L137 67L136 66z"/>
<path style="fill:#ff8e5e; stroke:none;" d="M137 66L138 67L137 66z"/>
<path style="fill:#ffbca4; stroke:none;" d="M140 66L141 67L140 66M115 67L116 68L115 67z"/>
<path style="fill:#ff8e5e; stroke:none;" d="M128 67L129 68L128 67M138 67L139 68L138 67M141 67L142 68L141 67z"/>
<path style="fill:#ffbca4; stroke:none;" d="M142 67L143 68L142 67M153 67L154 68L153 67z"/>
<path style="fill:#ff8e5e; stroke:none;" d="M154 67L155 68L154 67M113 68L114 69L113 68M127 68L128 69L127 68M139 68L140 69L139 68M144 68L145 69L144 68z"/>
<path style="fill:#ffbca4; stroke:none;" d="M145 68L145 69L151 69L145 68z"/>
<path style="fill:#ff8e5e; stroke:none;" d="M151 68L152 69L151 68z"/>
<path style="fill:#ffbca4; stroke:none;" d="M112 69L113 70L112 69z"/>
<path style="fill:#ff8e5e; stroke:none;" d="M126 69L127 70L126 69z"/>
<path style="fill:#ffbca4; stroke:none;" d="M139 69L140 70L139 69M111 70L112 71L111 70z"/>
<path style="fill:#ff8e5e; stroke:none;" d="M125 70L126 71L125 70M124 71L125 72L124 71M108 72L109 73L108 72M123 72L124 73L123 72z"/>
<path style="fill:#ffbca4; stroke:none;" d="M139 72L140 73L139 72z"/>
<path style="fill:#ff8e5e; stroke:none;" d="M107 73L108 74L107 73M122 73L123 74L122 73M139 73L140 74L139 73z"/>
<path style="fill:#ffbca4; stroke:none;" d="M106 74L107 75L106 74z"/>
<path style="fill:#ff8e5e; stroke:none;" d="M121 74L122 75L121 74z"/>
<path style="fill:#ffbca4; stroke:none;" d="M138 74L139 75L138 74M105 75L106 76L105 75z"/>
<path style="fill:#ff8e5e; stroke:none;" d="M120 75L121 76L120 75z"/>
<path style="fill:#ffbca4; stroke:none;" d="M137 75L138 76L137 75M104 76L105 77L104 76z"/>
<path style="fill:#ff8e5e; stroke:none;" d="M119 76L120 77L119 76z"/>
<path style="fill:#ffbca4; stroke:none;" d="M136 76L137 77L136 76M139 76L137 79L140 79L139 76z"/>
<path style="fill:#ff8e5e; stroke:none;" d="M118 77L119 78L118 77M135 77L136 78L135 77z"/>
<path style="fill:#fffdfc; stroke:none;" d="M139 77L140 78L139 77z"/>
<path style="fill:#ff8e5e; stroke:none;" d="M117 78L118 79L117 78M134 78L133 82L136 79L134 78z"/>
<path style="fill:#fffdfc; stroke:none;" d="M138 78C132.766 81.9842 127.936 86.4997 123 90.8449C119.68 93.7677 116.35 96.6878 113 99.5764C109.996 102.167 103.426 106.084 102.346 110.089C101.508 113.192 105.029 116.309 108.001 115.694C111.332 115.004 114.662 111.258 116.961 108.961C122.968 102.956 140.586 87.458 138 78z"/>
<path style="fill:#ff8e5e; stroke:none;" d="M100 79L101 80L100 79M116 79L117 80L116 79z"/>
<path style="fill:#ff6d37; stroke:none;" d="M134 79L135 80L134 79z"/>
<path style="fill:#ff8e5e; stroke:none;" d="M139 79L140 80L139 79M99 80L100 81L99 80M115 80L116 81L115 80z"/>
<path style="fill:#ff6d37; stroke:none;" d="M101 109C112.076 103.255 126.779 90.1663 134 80C123.035 85.1061 108 99.1449 101 109z"/>
<path style="fill:#ff8e5e; stroke:none;" d="M98 81L99 82L98 81M114 81L115 82L114 81z"/>
<path style="fill:#ffbca4; stroke:none;" d="M130 81L131 82L130 81M138 81L139 82L138 81z"/>
<path style="fill:#ff8e5e; stroke:none;" d="M97 82L98 83L97 82M113 82L114 83L113 82z"/>
<path style="fill:#ffbca4; stroke:none;" d="M129 82L130 83L129 82M132 82L133 83L132 82z"/>
<path style="fill:#ff8e5e; stroke:none;" d="M96 83L97 84L96 83M112 83L113 84L112 83z"/>
<path style="fill:#ffbca4; stroke:none;" d="M128 83L129 84L128 83M131 83L132 84L131 83M137 83L138 84L137 83z"/>
<path style="fill:#ff8e5e; stroke:none;" d="M95 84L96 85L95 84M111 84L112 85L111 84M127 84L128 85L127 84z"/>
<path style="fill:#ffbca4; stroke:none;" d="M130 84L131 85L130 84M94 85L95 86L94 85z"/>
<path style="fill:#ff8e5e; stroke:none;" d="M110 85L111 86L110 85M126 85L127 86L126 85z"/>
<path style="fill:#ffbca4; stroke:none;" d="M129 85L130 86L129 85z"/>
<path style="fill:#ff8e5e; stroke:none;" d="M136 85L137 86L136 85z"/>
<path style="fill:#ffbca4; stroke:none;" d="M93 86L94 87L93 86z"/>
<path style="fill:#ff8e5e; stroke:none;" d="M109 86L110 87L109 86M125 86L126 87L125 86z"/>
<path style="fill:#ffbca4; stroke:none;" d="M135 86L136 87L135 86M92 87L93 88L92 87z"/>
<path style="fill:#ff8e5e; stroke:none;" d="M108 87L109 88L108 87M126 87L127 88L126 87M135 87L136 88L135 87z"/>
<path style="fill:#ffbca4; stroke:none;" d="M91 88L92 89L91 88z"/>
<path style="fill:#ff8e5e; stroke:none;" d="M107 88L108 89L107 88z"/>
<path style="fill:#ffbca4; stroke:none;" d="M122 88L123 89L122 88z"/>
<path style="fill:#ff8e5e; stroke:none;" d="M125 88L126 89L125 88z"/>
<path style="fill:#ffbca4; stroke:none;" d="M134 88L135 89L134 88M90 89L91 90L90 89z"/>
<path style="fill:#ff8e5e; stroke:none;" d="M106 89L107 90L106 89z"/>
<path style="fill:#ffbca4; stroke:none;" d="M121 89L122 90L121 89z"/>
<path style="fill:#ff8e5e; stroke:none;" d="M124 89L125 90L124 89z"/>
<path style="fill:#ffbca4; stroke:none;" d="M133 89L134 90L133 89M89 90L90 91L89 90z"/>
<path style="fill:#ff8e5e; stroke:none;" d="M105 90L106 91L105 90z"/>
<path style="fill:#ffbca4; stroke:none;" d="M120 90L121 91L120 90M123 90L124 91L123 90M88 91L89 92L88 91z"/>
<path style="fill:#ff8e5e; stroke:none;" d="M104 91L93 103L94 104L106 92L104 91M119 91L120 92L119 91z"/>
<path style="fill:#ffbca4; stroke:none;" d="M122 91L123 92L122 91z"/>
<path style="fill:#ff8e5e; stroke:none;" d="M132 91L133 92L132 91z"/>
<path style="fill:#ffbca4; stroke:none;" d="M87 92L88 93L87 92z"/>
<path style="fill:#ff6d37; stroke:none;" d="M104 92L94 103L104 92z"/>
<path style="fill:#ff8e5e; stroke:none;" d="M118 92L119 93L118 92z"/>
<path style="fill:#ffbca4; stroke:none;" d="M121 92L122 93L121 92M131 92L132 93L131 92M86 93L87 94L86 93z"/>
<path style="fill:#ff8e5e; stroke:none;" d="M117 93L118 94L117 93z"/>
<path style="fill:#ffbca4; stroke:none;" d="M130 93L131 94L130 93M85 94L86 95L85 94z"/>
<path style="fill:#ff8e5e; stroke:none;" d="M116 94L117 95L116 94M118 94L119 95L118 94M84 95L85 96L84 95z"/>
<path style="fill:#ffbca4; stroke:none;" d="M114 95L115 96L114 95z"/>
<path style="fill:#ff8e5e; stroke:none;" d="M117 95L118 96L117 95M129 95L130 96L129 95M85 96L86 97L85 96z"/>
<path style="fill:#ffbca4; stroke:none;" d="M113 96L114 97L113 96z"/>
<path style="fill:#ff8e5e; stroke:none;" d="M116 96L117 97L116 96M128 96L129 97L128 96z"/>
<path style="fill:#ffbca4; stroke:none;" d="M76 108L76 107L74 106C78.6746 102.714 85.2651 95.9556 88 105L89 105C93.6837 89.2835 66.0485 105.812 76 108z"/>
<path style="fill:#ff8e5e; stroke:none;" d="M86 97L87 98L86 97z"/>
<path style="fill:#ffbca4; stroke:none;" d="M112 97L113 98L112 97M115 97L116 98L115 97z"/>
<path style="fill:#ff8e5e; stroke:none;" d="M127 97L128 98L127 97z"/>
<path style="fill:#fffdfc; stroke:none;" d="M74 107L89 104C83.4034 96.3408 78.5905 100.488 74 107z"/>
<path style="fill:#ff8e5e; stroke:none;" d="M87 98L88 99L87 98z"/>
<path style="fill:#ffbca4; stroke:none;" d="M111 98L112 99L111 98M114 98L115 99L114 98M126 98L127 99L126 98z"/>
<path style="fill:#ff8e5e; stroke:none;" d="M88 99L89 100L88 99M110 99L111 100L110 99z"/>
<path style="fill:#ffbca4; stroke:none;" d="M113 99L114 100L113 99M125 99L126 100L125 99z"/>
<path style="fill:#ff8e5e; stroke:none;" d="M89 100L90 101L89 100M109 100L110 101L109 100z"/>
<path style="fill:#ffbca4; stroke:none;" d="M124 100L125 101L124 100z"/>
<path style="fill:#ff8e5e; stroke:none;" d="M90 101L91 102L90 101M108 101L109 102L108 101M110 101L111 102L110 101z"/>
<path style="fill:#ffbca4; stroke:none;" d="M123 101L124 102L123 101z"/>
<path style="fill:#ff8e5e; stroke:none;" d="M91 102L92 103L91 102z"/>
<path style="fill:#ffbca4; stroke:none;" d="M106 102L107 103L106 102z"/>
<path style="fill:#ff8e5e; stroke:none;" d="M109 102L110 103L109 102z"/>
<path style="fill:#ffbca4; stroke:none;" d="M122 102L123 103L122 102M105 103L106 104L105 103z"/>
<path style="fill:#ff8e5e; stroke:none;" d="M108 103L109 104L108 103z"/>
<path style="fill:#ffbca4; stroke:none;" d="M121 103L122 104L121 103M104 104L105 105L104 104M107 104L108 105L107 104M83.6667 105.333L84.3333 105.667L83.6667 105.333z"/>
<path style="fill:#ff8e5e; stroke:none;" d="M85 105L86 106L85 105M94 105L95 106L94 105z"/>
<path style="fill:#ffbca4; stroke:none;" d="M103 105L104 106L103 105M106 105L107 106L106 105M79 106L80 107L79 106z"/>
<path style="fill:#ff8e5e; stroke:none;" d="M80.6667 106.333L81.3333 106.667L80.6667 106.333M91 106L87 111L91 106z"/>
<path style="fill:#ffbca4; stroke:none;" d="M92 106L95 111L96 111L92 106z"/>
<path style="fill:#ff8e5e; stroke:none;" d="M95 106L96 107L95 106M102 106L103 107L102 106z"/>
<path style="fill:#ffbca4; stroke:none;" d="M105 106L106 107L105 106z"/>
<path style="fill:#ff8e5e; stroke:none;" d="M76 107L77 108L76 107z"/>
<path style="fill:#fffdfc; stroke:none;" d="M87 112L95 111C92.4442 106.542 89.6428 108.572 87 112z"/>
<path style="fill:#ff8e5e; stroke:none;" d="M96 107L97 108L96 107M101 107L102 108L101 107M97 108L98 109L97 108M100 108L101 109L100 108M102 108L103 109L102 108M98 109L99 110L98 109M101 109L102 110L101 109M96 110L97 111L96 110M100.333 110.667L100.667 111.333L100.333 110.667z"/>
<path style="fill:#ffbca4; stroke:none;" d="M91 111L92 112L91 111z"/>
<path style="fill:#ff8e5e; stroke:none;" d="M92.6667 111.333L93.3333 111.667L92.6667 111.333z"/>
<path style="fill:#ffbca4; stroke:none;" d="M87 112L88 113L87 112z"/>
<path style="fill:#ff8e5e; stroke:none;" d="M88 112L89 113L88 112M96 112L97 113L96 112z"/>
<path style="fill:#ffbca4; stroke:none;" d="M97 112L97 113L105 119L97 112z"/>
<path style="fill:#ff8e5e; stroke:none;" d="M101 112L102 113L101 112M91.6667 113.333L92.3333 113.667L91.6667 113.333z"/>
<path style="fill:#ffbca4; stroke:none;" d="M93 113L94 114L93 113z"/>
<path style="fill:#fffdfc; stroke:none;" d="M52 146L52 147L64 157L63.1181 148.213L77 139.15L105 120C89.6046 98.4024 62.6031 135.397 52 146z"/>
<path style="fill:#ff8e5e; stroke:none;" d="M102 113L103 114L102 113z"/>
<path style="fill:#ffbca4; stroke:none;" d="M111 113L112 114L111 113z"/>
<path style="fill:#ff8e5e; stroke:none;" d="M86.6667 114.333L87.3333 114.667L86.6667 114.333z"/>
<path style="fill:#ffbca4; stroke:none;" d="M88 114L89 115L88 114z"/>
<path style="fill:#ff8e5e; stroke:none;" d="M103 114L104 115L103 114z"/>
<path style="fill:#ffbca4; stroke:none;" d="M110 114L111 115L110 114M83 115L84 116L83 115z"/>
<path style="fill:#ff8e5e; stroke:none;" d="M104 115L105 116L104 115z"/>
<path style="fill:#ffbca4; stroke:none;" d="M109 115L110 116L109 115z"/>
<path style="fill:#ff8e5e; stroke:none;" d="M81 116L82 117L81 116M105 116L106 117L105 116z"/>
<path style="fill:#ffbca4; stroke:none;" d="M108 116L109 117L108 116z"/>
<path style="fill:#ff8e5e; stroke:none;" d="M80 117L81 118L80 117M106 117L107 118L106 117z"/>
<path style="fill:#ffbca4; stroke:none;" d="M107 117L108 118L107 117z"/>
<path style="fill:#ff8e5e; stroke:none;" d="M79 118L80 119L79 118M78 119L79 120L78 119M105 119L106 120L105 119M77 120L78 121L77 120M104 120L105 121L104 120M76 121L77 122L76 121M103 121L104 122L103 121M75 122L76 123L75 122M74 123L75 124L74 123z"/>
<path style="fill:#ffbca4; stroke:none;" d="M100 123L101 124L100 123z"/>
<path style="fill:#ff8e5e; stroke:none;" d="M73 124L74 125L73 124M99 124L100 125L99 124M72 125L73 126L72 125M98 125L99 126L98 125M71 126L72 127L71 126z"/>
<path style="fill:#ffbca4; stroke:none;" d="M96 126L97 127L96 126z"/>
<path style="fill:#ff8e5e; stroke:none;" d="M70 127L71 128L70 127M95 127L96 128L95 127M69 128L70 129L69 128z"/>
<path style="fill:#ffbca4; stroke:none;" d="M93 128L94 129L93 128z"/>
<path style="fill:#ff8e5e; stroke:none;" d="M68 129L69 130L68 129z"/>
<path style="fill:#ffbca4; stroke:none;" d="M92 129L93 130L92 129z"/>
<path style="fill:#ff8e5e; stroke:none;" d="M67 130L68 131L67 130M91 130L92 131L91 130M66 131L67 132L66 131z"/>
<path style="fill:#ffbca4; stroke:none;" d="M89 131L90 132L89 131z"/>
<path style="fill:#ff8e5e; stroke:none;" d="M5 132L6 133L5 132M65 132L66 133L65 132M88 132L89 133L88 132M64 133L65 134L64 133z"/>
<path style="fill:#ffbca4; stroke:none;" d="M86 133L87 134L86 133z"/>
<path style="fill:#ff8e5e; stroke:none;" d="M63 134L64 135L63 134z"/>
<path style="fill:#ffbca4; stroke:none;" d="M84 134L85 135L84 134z"/>
<path style="fill:#ff8e5e; stroke:none;" d="M85 134L86 135L85 134M62 135L63 136L62 135M83 135L84 136L83 135M61 136L62 137L61 136z"/>
<path style="fill:#ffbca4; stroke:none;" d="M81 136L82 137L81 136z"/>
<path style="fill:#ff8e5e; stroke:none;" d="M60 137L61 138L60 137z"/>
<path style="fill:#ffbca4; stroke:none;" d="M79 137L80 138L79 137z"/>
<path style="fill:#ff8e5e; stroke:none;" d="M80 137L81 138L80 137M59 138L60 139L59 138M78 138L79 139L78 138M58 139L59 140L58 139z"/>
<path style="fill:#ffbca4; stroke:none;" d="M76 139L77 140L76 139z"/>
<path style="fill:#ff8e5e; stroke:none;" d="M57 140L58 141L57 140z"/>
<path style="fill:#ffbca4; stroke:none;" d="M74 140L75 141L74 140z"/>
<path style="fill:#ff8e5e; stroke:none;" d="M56 141L57 142L56 141z"/>
<path style="fill:#ffbca4; stroke:none;" d="M72 141L73 142L72 141z"/>
<path style="fill:#ff8e5e; stroke:none;" d="M73 141L74 142L73 141M55 142L56 143L55 142M71 142L72 143L71 142M54 143L55 144L54 143M69 143L70 144L69 143M53 144L54 145L53 144z"/>
<path style="fill:#ffbca4; stroke:none;" d="M67 144L68 145L67 144z"/>
<path style="fill:#ff8e5e; stroke:none;" d="M52 145L53 146L52 145z"/>
<path style="fill:#ffbca4; stroke:none;" d="M65 145L66 146L65 145M63 146L64 147L63 146z"/>
<path style="fill:#ff8e5e; stroke:none;" d="M52 147L53 148L52 147M62 147L63 148L62 147M49 148L42 156L49 148z"/>
<path style="fill:#ffbca4; stroke:none;" d="M50 148L60 158L50 148z"/>
<path style="fill:#ff8e5e; stroke:none;" d="M53 148L54 149L53 148z"/>
<path style="fill:#fffdfc; stroke:none;" d="M43 157L59 158C53.8315 150.668 47.6013 147.169 43 157z"/>
<path style="fill:#ff8e5e; stroke:none;" d="M54 149L55 150L54 149M62 149L63 150L62 149M55 150L56 151L55 150z"/>
<path style="fill:#ffbca4; stroke:none;" d="M62.3333 150.667L62.6667 151.333L62.3333 150.667z"/>
<path style="fill:#ff8e5e; stroke:none;" d="M56 151L57 152L56 151M57 152L58 153L57 152M58 153L59 154L58 153M63 153L64 154L63 153M59 154L60 155L59 154z"/>
<path style="fill:#ffbca4; stroke:none;" d="M63.3333 154.667L63.6667 155.333L63.3333 154.667z"/>
<path style="fill:#ff8e5e; stroke:none;" d="M60 155L61 156L60 155z"/>
<path style="fill:#ffbca4; stroke:none;" d="M42 156L43 157L42 156z"/>
<path style="fill:#ff8e5e; stroke:none;" d="M61 156L62 157L61 156M43 157L43 158L46 158L43 157z"/>
<path style="fill:#ffbca4; stroke:none;" d="M46 157L46 158L52 158L46 157z"/>
<path style="fill:#ff8e5e; stroke:none;" d="M62.6667 157.333L63.3333 157.667L62.6667 157.333M57 158L57 159L60 159L57 158M43 183L44 184L43 183z"/>
</svg>
